<svg width="72" height="60" viewBox="0 0 72 60" fill="none" xmlns="http://www.w3.org/2000/svg">
<path d="M1.15127 0H10.0465L8.89524 9.2093H0L1.15127 0Z" fill="#D52C4D"/>
<path d="M63.1044 50.2325H71.9996L70.8484 59.4418H61.9531L63.1044 50.2325Z" fill="#D52C4D"/>
<path d="M7.47868 14.595C8.55901 6.24789 15.6677 0 24.0844 0H49.7585C59.8594 0 67.6607 8.87607 66.3642 18.8934L63.0052 44.8469C61.9249 53.194 54.8162 59.4419 46.3995 59.4419H20.7253C10.6245 59.4419 2.82316 50.5658 4.11965 40.5485L7.47868 14.595Z" fill="#1E4365"/>
<g clip-path="url(#clip0_110_972)">
<path d="M46.7369 33.6211L46.7418 33.6177C46.7268 33.5969 46.7089 33.5785 46.6939 33.5581C46.6793 33.5383 46.6668 33.5165 46.6518 33.4967L36.4875 19.9444C36.4682 19.9187 36.4473 19.895 36.428 19.8698C36.4183 19.8572 36.4101 19.8437 36.3999 19.8306L36.398 19.8321C34.8477 17.8399 32.4329 16.6526 29.905 16.6526C25.3678 16.6526 21.6768 20.3437 21.6768 24.8808C21.6768 27.4083 22.8631 29.8221 24.8543 31.3723L24.8524 31.3748C24.8688 31.3874 24.8862 31.398 24.9027 31.4111C24.925 31.428 24.9458 31.4464 24.968 31.4633L38.5199 41.6276C38.547 41.6479 38.5755 41.6649 38.6031 41.6847C38.6196 41.6968 38.6336 41.7108 38.6501 41.7225L38.6525 41.7186C39.6283 42.4078 40.8107 42.7892 42.0052 42.7892C45.208 42.7892 47.8134 40.1838 47.8134 36.9811C47.8134 35.7831 47.43 34.5973 46.7369 33.6211ZM22.6448 24.8808C22.6448 20.8775 25.9017 17.6206 29.905 17.6206C32.158 17.6206 34.3095 18.6898 35.6753 20.4806C36.6487 21.7536 37.1651 23.2729 37.1651 24.8808C37.1651 28.884 33.9082 32.141 29.905 32.141C28.2995 32.141 26.7826 31.6265 25.5101 30.656C23.7164 29.2901 22.6448 27.1368 22.6448 24.8808ZM29.905 33.109C34.4421 33.109 38.1332 29.4179 38.1332 24.8808C38.1332 24.4539 38.0978 24.0338 38.0344 23.6199L43.9568 31.5161C43.3372 31.2949 42.679 31.1729 42.0052 31.1729C38.8025 31.1729 36.1971 33.7784 36.1971 36.9811C36.1971 37.6553 36.3196 38.3136 36.5412 38.9336L28.6441 33.0102C29.0579 33.0737 29.4781 33.109 29.905 33.109ZM42.0052 41.8212C40.9932 41.8212 39.9908 41.4935 39.1704 40.9011C37.9149 39.9907 37.1651 38.5304 37.1651 36.9811C37.1651 34.3122 39.3364 32.141 42.0052 32.141C43.5502 32.141 45.0051 32.8849 45.9141 34.1307C46.5138 34.9536 46.8454 35.9622 46.8454 36.9811C46.8454 39.6499 44.6741 41.8212 42.0052 41.8212Z" fill="white"/>
<path d="M48.2001 32.3346L38.0359 18.7822C36.1264 16.2363 33.0869 14.7166 29.9045 14.7166C24.2996 14.7166 19.7402 19.2759 19.7402 24.8808C19.7402 28.0632 21.26 31.1023 23.8059 33.0122L37.3583 43.1764C38.6903 44.1749 40.3403 44.7253 42.0048 44.7253C46.2747 44.7253 49.749 41.251 49.749 36.9811C49.749 35.3171 49.1991 33.6661 48.2001 32.3346ZM42.0048 43.7572C40.5484 43.7572 39.1046 43.2761 37.9391 42.402L24.3867 32.2378C22.0833 30.5103 20.7083 27.7597 20.7083 24.8808C20.7083 19.8098 24.8335 15.6846 29.9045 15.6846C32.7839 15.6846 35.534 17.0597 37.2615 19.3631L47.4257 32.9154C48.2993 34.0809 48.7809 35.5252 48.7809 36.9811C48.7809 40.7177 45.7413 43.7572 42.0048 43.7572Z" fill="white"/>
<path d="M42.0044 35.045C40.9367 35.045 40.0684 35.9134 40.0684 36.9811C40.0684 38.0488 40.9367 38.9171 42.0044 38.9171C43.0721 38.9171 43.9405 38.0488 43.9405 36.9811C43.9405 35.9134 43.0721 35.045 42.0044 35.045ZM42.0044 37.9491C41.4705 37.9491 41.0364 37.515 41.0364 36.9811C41.0364 36.4472 41.4705 36.0131 42.0044 36.0131C42.5383 36.0131 42.9724 36.4472 42.9724 36.9811C42.9724 37.515 42.5383 37.9491 42.0044 37.9491Z" fill="white"/>
<path d="M42.0049 33.109C39.8699 33.109 38.1328 34.8461 38.1328 36.9811C38.1328 39.1161 39.8699 40.8532 42.0049 40.8532C44.1399 40.8532 45.877 39.1161 45.877 36.9811C45.877 34.8461 44.1399 33.109 42.0049 33.109ZM42.0049 39.8852C40.4033 39.8852 39.1008 38.5827 39.1008 36.9811C39.1008 35.3795 40.4033 34.077 42.0049 34.077C43.6065 34.077 44.909 35.3795 44.909 36.9811C44.909 38.5827 43.6065 39.8852 42.0049 39.8852Z" fill="white"/>
<path d="M29.9044 27.3009C31.2389 27.3009 32.3245 26.2152 32.3245 24.8808C32.3245 23.5464 31.2389 22.4608 29.9044 22.4608C28.57 22.4608 27.4844 23.5464 27.4844 24.8808C27.4844 26.2152 28.57 27.3009 29.9044 27.3009ZM29.9044 23.4288C30.705 23.4288 31.3565 24.0803 31.3565 24.8808C31.3565 25.6814 30.705 26.3328 29.9044 26.3328C29.1039 26.3328 28.4524 25.6814 28.4524 24.8808C28.4524 24.0803 29.1039 23.4288 29.9044 23.4288Z" fill="white"/>
<path d="M29.9049 29.2369C32.3066 29.2369 34.261 27.2825 34.261 24.8808C34.261 22.4792 32.3066 20.5247 29.9049 20.5247C27.5033 20.5247 25.5488 22.4792 25.5488 24.8808C25.5488 27.2825 27.5033 29.2369 29.9049 29.2369ZM29.9049 21.4927C31.7732 21.4927 33.293 23.0125 33.293 24.8808C33.293 26.7491 31.7732 28.2689 29.9049 28.2689C28.0366 28.2689 26.5169 26.7491 26.5169 24.8808C26.5169 23.0125 28.0366 21.4927 29.9049 21.4927Z" fill="white"/>
<path d="M29.9049 19.5566C30.1722 19.5566 30.3889 19.3399 30.3889 19.0726C30.3889 18.8053 30.1722 18.5886 29.9049 18.5886C29.6376 18.5886 29.4209 18.8053 29.4209 19.0726C29.4209 19.3399 29.6376 19.5566 29.9049 19.5566Z" fill="white"/>
<path d="M24.6327 22.3959C24.8641 22.5294 25.1603 22.4501 25.2939 22.2187C25.4275 21.9873 25.3481 21.6911 25.1168 21.5575C24.8854 21.424 24.5892 21.5033 24.4556 21.7347C24.322 21.966 24.4009 22.2623 24.6327 22.3959Z" fill="white"/>
<path d="M25.1167 28.204C25.348 28.0704 25.4274 27.7742 25.2938 27.5429C25.1602 27.3115 24.864 27.2321 24.6326 27.3657C24.4013 27.4993 24.3219 27.7955 24.4555 28.0269C24.5891 28.2582 24.8848 28.3376 25.1167 28.204Z" fill="white"/>
<path d="M29.9049 31.1729C30.1722 31.1729 30.3889 30.9562 30.3889 30.6889C30.3889 30.4216 30.1722 30.2049 29.9049 30.2049C29.6376 30.2049 29.4209 30.4216 29.4209 30.6889C29.4209 30.9562 29.6376 31.1729 29.9049 31.1729Z" fill="white"/>
<path d="M34.6922 28.204C34.9236 28.3376 35.2198 28.2582 35.3534 28.0269C35.487 27.7955 35.4076 27.4993 35.1762 27.3657C34.9449 27.2321 34.6487 27.3115 34.5151 27.5429C34.3815 27.7742 34.4609 28.0704 34.6922 28.204Z" fill="white"/>
<path d="M35.1762 22.3959C35.4076 22.2623 35.487 21.966 35.3534 21.7347C35.2198 21.5033 34.9236 21.424 34.6922 21.5575C34.4609 21.6911 34.3815 21.9873 34.5151 22.2187C34.6487 22.4501 34.9449 22.5294 35.1762 22.3959Z" fill="white"/>
</g>
<path d="M53.8954 50.2325H62.7907L61.6394 59.4418H52.7441L53.8954 50.2325Z" fill="white"/>
<path d="M8.68642 0H17.5817L16.4304 9.2093H7.53516L8.68642 0Z" fill="white"/>
<defs>
<clipPath id="clip0_110_972">
<rect width="30.9767" height="30.9767" fill="white" transform="translate(19.2559 14.2325)"/>
</clipPath>
</defs>
</svg>
