<svg width="72" height="60" viewBox="0 0 72 60" fill="none" xmlns="http://www.w3.org/2000/svg">
<path d="M1.15127 0H10.0465L8.89524 9.2093H0L1.15127 0Z" fill="#D52C4D"/>
<path d="M63.1044 50.2325H71.9996L70.8484 59.4418H61.9531L63.1044 50.2325Z" fill="#D52C4D"/>
<path d="M7.47868 14.595C8.55901 6.24789 15.6677 0 24.0844 0H49.7585C59.8594 0 67.6607 8.87607 66.3642 18.8934L63.0052 44.8469C61.9249 53.194 54.8162 59.4419 46.3995 59.4419H20.7253C10.6245 59.4419 2.82316 50.5658 4.11965 40.5485L7.47868 14.595Z" fill="#1E4365"/>
<path d="M26.4259 41.5471C25.7254 41.5471 25.0445 41.4096 24.4016 41.1373C24.2249 41.0625 24.0977 40.9054 24.0608 40.7177C24.024 40.5301 24.0833 40.3361 24.2185 40.2009L26.2532 38.1668V36.5384H24.6255L22.5908 38.5725C22.4555 38.7078 22.2627 38.7682 22.0739 38.7302C21.8863 38.694 21.7286 38.5662 21.6543 38.3895C20.8272 36.4348 21.2612 34.2045 22.7594 32.7062C23.7362 31.7289 25.0359 31.1907 26.4184 31.1907C26.9865 31.1907 27.5419 31.2811 28.0738 31.4607L36.479 23.0554C35.8505 21.1946 36.319 19.1455 37.724 17.7405C38.7013 16.7638 40.001 16.2256 41.3835 16.2256C42.084 16.2256 42.7649 16.3631 43.4078 16.6354C43.5845 16.7102 43.7117 16.8674 43.7486 17.055C43.7854 17.2426 43.7261 17.4366 43.5909 17.5719L41.5562 19.6071V21.2354H43.1845L45.2186 19.2008C45.3539 19.0655 45.5455 19.0051 45.7355 19.0431C45.9231 19.0793 46.0808 19.2071 46.1551 19.3838C46.9822 21.3385 46.5482 23.5689 45.05 25.0671C44.0732 26.0439 42.7735 26.582 41.391 26.582C40.8229 26.582 40.2675 26.4917 39.7356 26.3121L31.3304 34.7173C31.9589 36.5781 31.4898 38.6272 30.0849 40.0322C29.1081 41.009 27.8084 41.5471 26.4259 41.5471ZM25.7139 40.3338C25.947 40.3753 26.1847 40.396 26.4259 40.396C27.5011 40.396 28.5112 39.9775 29.271 39.2183C30.4365 38.0534 30.7738 36.3174 30.1303 34.7973C30.0388 34.5815 30.0877 34.3317 30.2535 34.1659L39.1842 25.2352C39.3506 25.0694 39.6009 25.0199 39.8156 25.112C40.3158 25.3232 40.8459 25.4309 41.391 25.4309C42.4662 25.4309 43.4763 25.0124 44.2361 24.2526C45.1852 23.3035 45.5853 21.9756 45.3527 20.6938L43.8292 22.2174C43.721 22.3256 43.5748 22.386 43.4222 22.386H40.9806C40.6629 22.386 40.405 22.1287 40.405 21.8105V19.3688C40.405 19.2157 40.4655 19.0695 40.5737 18.9619L42.0967 17.4395C41.863 17.398 41.6253 17.3773 41.3841 17.3773C40.3089 17.3773 39.2982 17.7958 38.5384 18.555C37.3734 19.7205 37.0362 21.4559 37.6797 22.976C37.7712 23.1918 37.7222 23.4417 37.5565 23.6074L28.6252 32.5381C28.4594 32.7039 28.209 32.7528 27.9938 32.6613C27.4936 32.4501 26.9635 32.3424 26.4184 32.3424C25.3432 32.3424 24.3325 32.7609 23.5733 33.5207C22.6242 34.4698 22.2241 35.7977 22.4567 37.0795L23.9802 35.5559C24.0884 35.4477 24.2346 35.3873 24.3872 35.3873H26.8294C27.1471 35.3873 27.4049 35.6446 27.4049 35.9629V38.405C27.4049 38.5581 27.3445 38.7043 27.2363 38.812L25.7139 40.3338Z" fill="white"/>
<path d="M44.2666 41.5466C43.6518 41.5466 43.0734 41.3071 42.6382 40.872L37.3475 35.5806C37.1224 35.3556 37.1224 34.9918 37.3475 34.7668L39.7891 32.3252C40.0142 32.1001 40.3779 32.1001 40.603 32.3252L45.8943 37.6165C46.3294 38.051 46.5689 38.6295 46.5689 39.2442C46.5689 39.8595 46.3289 40.438 45.8943 40.8725C45.4597 41.3071 44.8819 41.5466 44.2666 41.5466ZM38.5689 35.1737L43.4527 40.0581C43.8873 40.4927 44.6453 40.4932 45.0804 40.0581C45.298 39.8405 45.4177 39.5516 45.4177 39.2442C45.4177 38.9369 45.298 38.6473 45.081 38.4304L40.1966 33.546L38.5689 35.1737Z" fill="white"/>
<path d="M32.8655 27.0269L26.2979 20.4592L25.4839 21.2732L32.0515 27.8409L32.8655 27.0269Z" fill="white"/>
<path d="M36.5337 36.9707C36.3864 36.9707 36.239 36.9143 36.1268 36.802C35.9017 36.577 35.9017 36.2132 36.1268 35.9881L41.0106 31.1043C41.2357 30.8793 41.5994 30.8793 41.8245 31.1043C42.0495 31.3294 42.0495 31.6932 41.8245 31.9182L36.9407 36.802C36.8284 36.9143 36.6811 36.9707 36.5337 36.9707Z" fill="white"/>
<path d="M25.0758 22.2559C24.9284 22.2559 24.7811 22.1995 24.6688 22.0873L21.4128 18.8312C21.3046 18.7236 21.2441 18.5774 21.2441 18.4243C21.2441 18.2712 21.3046 18.125 21.4128 18.0174L23.0405 16.3896C23.2656 16.1646 23.6293 16.1646 23.8544 16.3896L27.1105 19.6457C27.2187 19.7539 27.2791 19.8995 27.2791 20.0526C27.2791 20.2057 27.2187 20.3519 27.1105 20.4596L25.4827 22.0873C25.3705 22.2001 25.2231 22.2559 25.0758 22.2559ZM22.6336 18.4243L25.0758 20.8665L25.8897 20.0526L23.4475 17.6104L22.6336 18.4243Z" fill="white"/>
<path d="M39.5336 33.6937L35.3086 29.4688L34.4946 30.2827L38.7196 34.5077L39.5336 33.6937Z" fill="white"/>
<path d="M53.8954 50.2325H62.7907L61.6394 59.4418H52.7441L53.8954 50.2325Z" fill="white"/>
<path d="M8.68642 0H17.5817L16.4304 9.2093H7.53516L8.68642 0Z" fill="white"/>
</svg>
