<svg width="72" height="60" viewBox="0 0 72 60" fill="none" xmlns="http://www.w3.org/2000/svg">
<path d="M1.15127 0H10.0465L8.89524 9.2093H0L1.15127 0Z" fill="#D52C4D"/>
<path d="M63.1044 50.2325H71.9996L70.8484 59.4418H61.9531L63.1044 50.2325Z" fill="#D52C4D"/>
<path d="M7.47868 14.595C8.55901 6.24789 15.6677 0 24.0844 0H49.7585C59.8594 0 67.6607 8.87607 66.3642 18.8934L63.0052 44.8469C61.9249 53.194 54.8162 59.4419 46.3995 59.4419H20.7253C10.6245 59.4419 2.82316 50.5658 4.11965 40.5485L7.47868 14.595Z" fill="#1E4365"/>
<path d="M39.9406 30.3091C39.8527 30.2219 39.7486 30.1528 39.6341 30.1059C39.5196 30.0589 39.397 30.035 39.2732 30.0354C39.1495 30.0358 39.027 30.0607 38.9128 30.1084C38.7987 30.1562 38.695 30.226 38.6078 30.3138C38.5206 30.4016 38.4516 30.5057 38.4046 30.6202C38.3577 30.7347 38.3337 30.8574 38.3342 30.9811C38.3346 31.1049 38.3594 31.2273 38.4072 31.3415C38.4549 31.4557 38.5247 31.5593 38.6125 31.6465C39.4095 32.435 40.0421 33.3738 40.4738 34.4085C40.9055 35.4432 41.1276 36.5533 41.1273 37.6744C41.1273 38.8235 37.8214 40.5 32.6506 40.5C27.4798 40.5 24.1738 38.8235 24.1738 37.6744C24.1723 36.5607 24.3903 35.4576 24.8154 34.4281C25.2404 33.3987 25.8641 32.463 26.6509 31.6748C26.8263 31.4983 26.9248 31.2596 26.9248 31.0108C26.9248 30.7619 26.8263 30.5232 26.6509 30.3467C26.4744 30.1713 26.2357 30.0729 25.9869 30.0729C25.7381 30.0729 25.4994 30.1713 25.3229 30.3467C24.3576 31.3067 23.5924 32.4487 23.0718 33.7065C22.5512 34.9644 22.2855 36.3131 22.2901 37.6744C22.2901 40.7355 27.6304 42.3837 32.6506 42.3837C37.6707 42.3837 43.011 40.7355 43.011 37.6744C43.0146 36.3043 42.745 34.9471 42.2177 33.6824C41.6905 32.4178 40.9164 31.2709 39.9406 30.3091Z" fill="white"/>
<path d="M32.6506 31.0814C33.9546 31.0814 35.2293 30.6948 36.3135 29.9703C37.3977 29.2459 38.2428 28.2162 38.7418 27.0115C39.2408 25.8067 39.3714 24.4811 39.117 23.2022C38.8626 21.9233 38.2347 20.7485 37.3126 19.8264C36.3906 18.9044 35.2158 18.2765 33.9369 18.0221C32.658 17.7677 31.3323 17.8982 30.1276 18.3973C28.9229 18.8963 27.8932 19.7413 27.1687 20.8255C26.4443 21.9097 26.0576 23.1844 26.0576 24.4884C26.0576 26.237 26.7522 27.914 27.9887 29.1504C29.2251 30.3868 30.9021 31.0814 32.6506 31.0814ZM32.6506 19.7791C33.5821 19.7791 34.4925 20.0553 35.267 20.5728C36.0414 21.0902 36.645 21.8257 37.0015 22.6862C37.3579 23.5468 37.4512 24.4936 37.2695 25.4072C37.0877 26.3207 36.6392 27.1598 35.9806 27.8184C35.322 28.477 34.4829 28.9255 33.5694 29.1072C32.6559 29.2889 31.709 29.1957 30.8485 28.8392C29.988 28.4828 29.2525 27.8792 28.735 27.1048C28.2175 26.3303 27.9413 25.4198 27.9413 24.4884C27.9413 23.2394 28.4375 22.0416 29.3207 21.1584C30.2038 20.2753 31.4017 19.7791 32.6506 19.7791Z" fill="white"/>
<path d="M53.8954 50.2325H62.7907L61.6394 59.4418H52.7441L53.8954 50.2325Z" fill="white"/>
<path d="M8.68642 0H17.5817L16.4304 9.2093H7.53516L8.68642 0Z" fill="white"/>
</svg>
