<svg width="20" height="21" viewBox="0 0 20 21" fill="none" xmlns="http://www.w3.org/2000/svg">
<g clip-path="url(#clip0_110_640)">
<path d="M19.2711 14.8484C19.2189 14.7609 18.8956 14.0584 17.3399 12.6145C15.7113 11.1026 15.9301 11.3481 17.8917 8.73387C19.0864 7.14174 19.564 6.16945 19.4145 5.75379C19.2724 5.35758 18.3936 5.4621 18.3936 5.4621L15.4719 5.47912C15.4719 5.47912 15.2556 5.44995 15.0939 5.54596C14.9371 5.64076 14.8363 5.85953 14.8363 5.85953C14.8363 5.85953 14.3732 7.09191 13.7558 8.13956C12.4541 10.3503 11.9327 10.467 11.7201 10.3297C11.2254 10.01 11.3494 9.04379 11.3494 8.35832C11.3494 6.21563 11.6739 5.32233 10.7162 5.09141C10.3977 5.01485 10.1644 4.9638 9.35131 4.95529C8.30852 4.94435 7.42495 4.95894 6.92543 5.20323C6.59242 5.36609 6.33598 5.72948 6.49276 5.75014C6.68601 5.77567 7.12354 5.86803 7.35567 6.18403C7.65587 6.59118 7.64493 7.50757 7.64493 7.50757C7.64493 7.50757 7.81751 10.0295 7.24265 10.343C6.84765 10.5581 6.30681 10.1194 5.14614 8.11282C4.55182 7.08583 4.10214 5.94946 4.10214 5.94946C4.10214 5.94946 4.01584 5.73799 3.86149 5.62496C3.67433 5.48762 3.41181 5.44387 3.41181 5.44387L0.633478 5.46089C0.633478 5.46089 0.216607 5.47304 0.0634704 5.65413C-0.0726507 5.81577 0.0525321 6.14878 0.0525321 6.14878C0.0525321 6.14878 2.22804 11.2375 4.69037 13.8032C6.94974 16.1549 9.51417 16.0006 9.51417 16.0006H10.6761C10.6761 16.0006 11.0273 15.9617 11.206 15.7684C11.3712 15.591 11.3652 15.258 11.3652 15.258C11.3652 15.258 11.3421 13.6987 12.0664 13.4689C12.7799 13.2429 13.6962 14.976 14.6673 15.6432C15.4014 16.1476 15.9593 16.037 15.9593 16.037L18.5565 16.0006C18.5565 16.0006 19.9153 15.9167 19.2711 14.8484Z" fill="white"/>
</g>
<defs>
<clipPath id="clip0_110_640">
<rect width="19.4444" height="19.4444" fill="white" transform="translate(0 0.777832)"/>
</clipPath>
</defs>
</svg>
