<svg width="16" height="16" viewBox="0 0 16 16" fill="none" xmlns="http://www.w3.org/2000/svg">
<g clip-path="url(#clip0_110_646)">
<path d="M13.3555 2.59232C11.8942 1.13648 9.95021 0.334205 7.88127 0.333374C5.81696 0.333374 3.86991 1.13494 2.39899 2.59042C0.925469 4.0484 0.113227 5.98596 0.111328 8.03911V8.04149V8.04291C0.111565 9.2856 0.438053 10.5392 1.0578 11.6835L0.132572 15.8889L4.3864 14.9213C5.46377 15.4643 6.66588 15.7505 7.87831 15.751H7.88139C9.94535 15.751 11.8924 14.9493 13.3636 13.4937C14.8384 12.0346 15.651 10.0995 15.6519 8.04505C15.6525 6.00507 14.8371 4.06857 13.3555 2.59232ZM7.88127 14.5369H7.87854C6.7899 14.5365 5.71122 14.2631 4.75929 13.7463L4.55813 13.6371L1.72952 14.2805L2.34393 11.4882L2.22548 11.2839C1.6366 10.2684 1.32542 9.14734 1.32542 8.04161C1.32767 4.46259 4.26831 1.54746 7.88104 1.54746C9.62634 1.54818 11.2662 2.22477 12.4986 3.45239C13.7496 4.699 14.4383 6.32989 14.4377 8.04469C14.4363 11.6245 11.4951 14.5369 7.88127 14.5369Z" fill="white"/>
<path d="M5.76669 4.64343H5.42608C5.30752 4.64343 5.11502 4.68782 4.9522 4.86501C4.78925 5.04231 4.33008 5.47087 4.33008 6.34245C4.33008 7.21403 4.96703 8.05618 5.0558 8.1745C5.14469 8.29271 6.28532 10.1384 8.09186 10.8485C9.59327 11.4385 9.89887 11.3212 10.2246 11.2916C10.5505 11.2622 11.2763 10.8632 11.4244 10.4496C11.5725 10.036 11.5725 9.68138 11.5281 9.60732C11.4836 9.5335 11.365 9.48923 11.1874 9.4007C11.0096 9.31205 10.1385 8.87625 9.97554 8.81703C9.81259 8.75805 9.69415 8.7285 9.57559 8.90592C9.45703 9.08299 9.10799 9.49268 9.00427 9.61088C8.90066 9.7292 8.79694 9.74404 8.61915 9.65539C8.44137 9.56649 7.8748 9.37613 7.19583 8.77277C6.66735 8.30315 6.30063 7.70429 6.19691 7.52699C6.0933 7.3498 6.18587 7.25391 6.275 7.16549C6.35487 7.08621 6.46275 6.97774 6.55164 6.87437C6.64041 6.77088 6.66569 6.69706 6.72503 6.57886C6.78425 6.46065 6.75458 6.35716 6.71019 6.26863C6.66569 6.17998 6.3246 5.304 6.16652 4.95366H6.16664C6.03348 4.65862 5.89332 4.64865 5.76669 4.64343Z" fill="white"/>
</g>
<defs>
<clipPath id="clip0_110_646">
<rect width="15.5556" height="15.5556" fill="white" transform="translate(0.111328 0.333374)"/>
</clipPath>
</defs>
</svg>
