<svg width="72" height="60" viewBox="0 0 72 60" fill="none" xmlns="http://www.w3.org/2000/svg">
<path d="M1.15127 0H10.0465L8.89524 9.2093H0L1.15127 0Z" fill="#D52C4D"/>
<path d="M63.1044 50.2325H71.9996L70.8484 59.4418H61.9531L63.1044 50.2325Z" fill="#D52C4D"/>
<path d="M7.47868 14.595C8.55901 6.24789 15.6677 0 24.0844 0H49.7585C59.8594 0 67.6607 8.87607 66.3642 18.8934L63.0052 44.8469C61.9249 53.194 54.8162 59.4419 46.3995 59.4419H20.7253C10.6245 59.4419 2.82316 50.5658 4.11965 40.5485L7.47868 14.595Z" fill="#1E4365"/>
<path d="M53.8954 50.2325H62.7907L61.6394 59.4418H52.7441L53.8954 50.2325Z" fill="white"/>
<path d="M8.68642 0H17.5817L16.4304 9.2093H7.53516L8.68642 0Z" fill="white"/>
<path d="M34.4055 31.5289V41.4419H35.759V31.5289C39.0236 31.2104 41.5317 28.4236 41.5317 25.1192C41.5317 21.576 38.6255 18.6698 35.0823 18.6698C31.539 18.6698 28.6328 21.576 28.6328 25.1192C28.6328 28.4236 31.1807 31.1706 34.4055 31.5289Z" fill="white"/>
</svg>
