<svg width="17" height="17" viewBox="0 0 17 17" fill="none" xmlns="http://www.w3.org/2000/svg">
<g id="9055324_bxs_navigation_icon 1">
<path id="Vector" d="M1.41811 6.7562C1.40182 7.04733 1.56474 7.31862 1.82965 7.44045L7.14499 9.87853L9.58307 15.1932C9.69923 15.4453 9.9514 15.6061 10.2269 15.6061L10.2673 15.6047C10.4095 15.5967 10.5459 15.5461 10.6589 15.4594C10.7719 15.3728 10.8561 15.254 10.9006 15.1188L14.8637 3.05445C14.9466 2.80087 14.88 2.52108 14.6916 2.33195C14.5032 2.14283 14.2241 2.07837 13.9691 2.15983L1.90403 6.12366C1.76872 6.16785 1.64993 6.25188 1.56322 6.36476C1.4765 6.47764 1.42593 6.61408 1.41811 6.7562Z" fill="#D52C4D"/>
</g>
</svg>
