<svg width="62" height="62" viewBox="0 0 62 62" fill="none" xmlns="http://www.w3.org/2000/svg">
<g clip-path="url(#clip0_80_264)">
<path d="M18.8354 53.7953L5.16702 56.8333L8.20502 43.1649C6.20431 39.4226 5.16063 35.2435 5.16702 31C5.16702 16.7322 16.7326 5.16663 31.0004 5.16663C45.2681 5.16663 56.8337 16.7322 56.8337 31C56.8337 45.2677 45.2681 56.8333 31.0004 56.8333C26.7569 56.8397 22.5777 55.796 18.8354 53.7953ZM19.5846 48.3367L21.2715 49.2409C24.2644 50.8403 27.6069 51.6737 31.0004 51.6666C35.0878 51.6666 39.0835 50.4546 42.4821 48.1837C45.8808 45.9128 48.5297 42.6851 50.0939 38.9088C51.6581 35.1324 52.0674 30.977 51.2699 26.9681C50.4725 22.9592 48.5042 19.2767 45.6139 16.3864C42.7236 13.4961 39.0412 11.5278 35.0322 10.7304C31.0233 9.93297 26.8679 10.3422 23.0916 11.9065C19.3152 13.4707 16.0875 16.1196 13.8167 19.5182C11.5458 22.9168 10.3337 26.9125 10.3337 31C10.3337 34.4461 11.1733 37.7631 12.762 40.7288L13.6636 42.4157L11.9715 50.0288L19.5846 48.3367Z" fill="#1E4365"/>
<path d="M30.0754 22.9134C30.4153 22.0876 31.585 22.0876 31.9249 22.9134L33.6746 27.1647C33.8184 27.514 34.1466 27.7524 34.5232 27.7812L39.1071 28.1316C39.9976 28.1997 40.359 29.3121 39.6786 29.8906L36.1761 32.8684C35.8884 33.113 35.763 33.4989 35.852 33.8659L36.9353 38.3338C37.1457 39.2017 36.1994 39.8892 35.439 39.4209L31.5246 37.01C31.203 36.8119 30.7973 36.8119 30.4757 37.01L26.5613 39.4209C25.8009 39.8892 24.8546 39.2017 25.065 38.3338L26.1483 33.8659C26.2373 33.4989 26.1119 33.113 25.8242 32.8684L22.3217 29.8906C21.6413 29.3121 22.0027 28.1997 22.8932 28.1316L27.4771 27.7812C27.8537 27.7524 28.1819 27.514 28.3256 27.1647L30.0754 22.9134Z" fill="#E33737"/>
</g>
<defs>
<clipPath id="clip0_80_264">
<rect width="62" height="62" fill="white"/>
</clipPath>
</defs>
</svg>
