<svg width="26" height="25" viewBox="0 0 26 25" fill="none" xmlns="http://www.w3.org/2000/svg">
<g id="733639" clip-path="url(#clip0_110_949)">
<g id="Group">
<g id="Group_2">
<path id="Vector" d="M25.2772 18.0907C25.21 17.9782 24.7943 17.075 22.7942 15.2186C20.7003 13.2748 20.9815 13.5904 23.5036 10.2292C25.0397 8.18219 25.6538 6.93209 25.4616 6.39768C25.2787 5.88827 24.149 6.02265 24.149 6.02265L20.3924 6.04453C20.3924 6.04453 20.1143 6.00703 19.9065 6.13047C19.7049 6.25236 19.5752 6.53363 19.5752 6.53363C19.5752 6.53363 18.9798 8.11812 18.186 9.46509C16.5125 12.3075 15.8421 12.4575 15.5686 12.2809C14.9327 11.87 15.092 10.6277 15.092 9.74637C15.092 6.99147 15.5093 5.84295 14.2779 5.54605C13.8685 5.44761 13.5685 5.38198 12.5231 5.37104C11.1824 5.35698 10.0464 5.37573 9.40413 5.68981C8.97597 5.8992 8.64626 6.36643 8.84784 6.39299C9.09629 6.42581 9.65884 6.54457 9.9573 6.95085C10.3433 7.47432 10.3292 8.65253 10.3292 8.65253C10.3292 8.65253 10.5511 11.895 9.81197 12.2981C9.30412 12.5747 8.60876 12.0106 7.11646 9.43072C6.35234 8.11031 5.77417 6.64926 5.77417 6.64926C5.77417 6.64926 5.66323 6.37737 5.46478 6.23204C5.22413 6.05547 4.88661 5.99921 4.88661 5.99921L1.31447 6.02109C1.31447 6.02109 0.778494 6.03672 0.581605 6.26954C0.406592 6.47737 0.567541 6.90553 0.567541 6.90553C0.567541 6.90553 3.36462 13.4482 6.53048 16.7469C9.43538 19.7705 12.7325 19.5721 12.7325 19.5721H14.2264C14.2264 19.5721 14.678 19.5221 14.9077 19.2736C15.1202 19.0455 15.1124 18.6173 15.1124 18.6173C15.1124 18.6173 15.0827 16.6125 16.014 16.3172C16.9312 16.0265 18.1095 18.2548 19.358 19.1127C20.3018 19.7612 21.019 19.619 21.019 19.619L24.3584 19.5721C24.3584 19.5721 26.1054 19.4643 25.2772 18.0907Z" fill="#3960EB"/>
</g>
</g>
</g>
<defs>
<clipPath id="clip0_110_949">
<rect width="25" height="25" fill="white" transform="translate(0.5)"/>
</clipPath>
</defs>
</svg>
