<svg width="20" height="21" viewBox="0 0 20 21" fill="none" xmlns="http://www.w3.org/2000/svg">
<g id="whatsapp 1" clip-path="url(#clip0_110_956)">
<path id="Vector" d="M17.0282 3.40436C15.1494 1.53256 12.65 0.501068 9.98993 0.5C7.33582 0.5 4.83246 1.53058 2.94128 3.40192C1.04675 5.27646 0.00244141 7.76761 0 10.4074V10.4104V10.4123C0.000305176 12.01 0.420074 13.6218 1.21689 15.093L0.0273132 20.5L5.49652 19.256C6.88171 19.954 8.42728 20.3221 9.98611 20.3227H9.99008C12.6437 20.3227 15.1471 19.292 17.0386 17.4205C18.9348 15.5444 19.9796 13.0565 19.9808 10.415C19.9815 7.79218 18.9331 5.3024 17.0282 3.40436ZM9.98993 18.7617H9.98642C8.58673 18.7611 7.19986 18.4097 5.97595 17.7452L5.71732 17.6048L2.08054 18.432L2.87048 14.8419L2.7182 14.5793C1.96106 13.2736 1.56097 11.8322 1.56097 10.4106C1.56387 5.80899 5.3447 2.06097 9.98962 2.06097C12.2336 2.06189 14.342 2.93179 15.9265 4.51016C17.5349 6.11295 18.4204 8.20981 18.4196 10.4146C18.4178 15.0172 14.6362 18.7617 9.98993 18.7617Z" fill="#49A85E"/>
<path id="Vector_2" d="M7.27188 6.0415H6.83395C6.68152 6.0415 6.43402 6.09857 6.22467 6.32639C6.01517 6.55435 5.4248 7.10535 5.4248 8.22595C5.4248 9.34656 6.24374 10.4293 6.35788 10.5815C6.47217 10.7334 7.93869 13.1065 10.2614 14.0194C12.1918 14.7781 12.5847 14.6272 13.0035 14.5892C13.4225 14.5513 14.3556 14.0383 14.5461 13.5066C14.7365 12.9748 14.7365 12.5189 14.6794 12.4236C14.6222 12.3287 14.4698 12.2718 14.2413 12.158C14.0128 12.044 12.8928 11.4837 12.6833 11.4076C12.4738 11.3317 12.3215 11.2937 12.169 11.5219C12.0166 11.7495 11.5678 12.2762 11.4345 12.4282C11.3013 12.5804 11.1679 12.5994 10.9393 12.4854C10.7108 12.3712 9.9823 12.1264 9.10934 11.3506C8.42987 10.7469 7.95837 9.9769 7.82501 9.74893C7.6918 9.52112 7.81082 9.39783 7.92541 9.28415C8.02811 9.18222 8.16681 9.04275 8.2811 8.90985C8.39523 8.77679 8.42773 8.68188 8.50403 8.52991C8.58017 8.37793 8.54202 8.24487 8.48495 8.13104C8.42773 8.01706 7.9892 6.89081 7.78595 6.44037H7.7861C7.6149 6.06104 7.43469 6.04822 7.27188 6.0415Z" fill="#49A85E"/>
</g>
<defs>
<clipPath id="clip0_110_956">
<rect width="20" height="20" fill="white" transform="translate(0 0.5)"/>
</clipPath>
</defs>
</svg>
