<svg width="24" height="24" viewBox="0 0 24 24" fill="none" xmlns="http://www.w3.org/2000/svg">
<path d="M21.4925 5.59566C21.4408 5.48739 21.3639 5.3931 21.2682 5.32072C21.1725 5.24833 21.0609 5.19995 20.9426 5.17965C20.8244 5.15935 20.703 5.16772 20.5886 5.20405C20.4743 5.24037 20.3703 5.30361 20.2855 5.38843L16.6637 9.01093L14.9937 9.00658L14.9894 7.33738L18.6126 3.71556C18.6974 3.6307 18.7607 3.52673 18.797 3.41238C18.8333 3.29803 18.8417 3.17663 18.8214 3.05838C18.8011 2.94013 18.7527 2.82848 18.6803 2.7328C18.6079 2.63712 18.5136 2.5602 18.4053 2.50851C17.5294 2.09255 16.572 1.87641 15.6023 1.87573C14.5924 1.87556 13.5963 2.11018 12.6926 2.56106C11.7889 3.01194 11.0025 3.66673 10.3953 4.47374C9.78809 5.28074 9.37683 6.21785 9.19397 7.21107C9.01112 8.20429 9.06167 9.22643 9.34164 10.1968L2.77621 16.7629C2.20036 17.34 1.87695 18.1219 1.87695 18.9371C1.87695 19.7523 2.20036 20.5342 2.77621 21.1113L2.88871 21.2238C3.1735 21.5103 3.51229 21.7375 3.88548 21.8922C4.25867 22.0469 4.65883 22.126 5.06281 22.125C5.87787 22.1229 6.65923 21.7995 7.23736 21.225L13.8043 14.6596C15.0106 15.0075 16.2918 14.9995 17.4937 14.6366C18.6956 14.2737 19.7671 13.5712 20.5793 12.6138C21.3914 11.6563 21.9097 10.4846 22.0717 9.23957C22.2337 7.99455 22.0326 6.72908 21.4925 5.59566ZM5.11186 19.6391C4.96353 19.6391 4.81852 19.5951 4.69518 19.5127C4.57185 19.4303 4.47572 19.3132 4.41895 19.1761C4.36219 19.0391 4.34733 18.8883 4.37627 18.7428C4.40521 18.5973 4.47664 18.4637 4.58153 18.3588C4.68642 18.2539 4.82006 18.1825 4.96554 18.1535C5.11103 18.1246 5.26183 18.1394 5.39887 18.1962C5.53592 18.253 5.65305 18.3491 5.73546 18.4724C5.81788 18.5958 5.86186 18.7408 5.86186 18.8891C5.86192 18.9876 5.84256 19.0852 5.80489 19.1762C5.76722 19.2672 5.71198 19.3499 5.64232 19.4196C5.57267 19.4892 5.48997 19.5445 5.39894 19.5821C5.30792 19.6198 5.21037 19.6392 5.11186 19.6391Z" fill="white"/>
</svg>
