<svg width="20" height="21" viewBox="0 0 20 21" fill="none" xmlns="http://www.w3.org/2000/svg">
<g id="9104310_phone_online_mobile_smartphone_icon 1">
<g id="_icons">
<g id="Group">
<path id="Vector" d="M12.5003 2.16675H7.50033C5.66699 2.16675 4.16699 3.66675 4.16699 5.50008V15.5001C4.16699 17.3334 5.66699 18.8334 7.50033 18.8334H12.5003C14.3337 18.8334 15.8337 17.3334 15.8337 15.5001V5.50008C15.8337 3.66675 14.3337 2.16675 12.5003 2.16675ZM14.167 15.5001C14.167 16.4167 13.417 17.1667 12.5003 17.1667H7.50033C6.58366 17.1667 5.83366 16.4167 5.83366 15.5001V5.50008C5.83366 4.58341 6.58366 3.83341 7.50033 3.83341H12.5003C13.417 3.83341 14.167 4.58341 14.167 5.50008V15.5001Z" fill="#D52C4D"/>
<path id="Vector_2" d="M10.834 4.66675H9.16732C8.66732 4.66675 8.33398 5.00008 8.33398 5.50008C8.33398 6.00008 8.66732 6.33341 9.16732 6.33341H10.834C11.334 6.33341 11.6673 6.00008 11.6673 5.50008C11.6673 5.00008 11.334 4.66675 10.834 4.66675Z" fill="#D52C4D"/>
</g>
</g>
</g>
</svg>
